<mxfile host="65bd71144e" modified="2020-12-08T10:44:20.519Z" agent="5.0 (Windows NT 10.0; Win64; x64) AppleWebKit/537.36 (KHTML, like Gecko) Code/1.51.1 Chrome/83.0.4103.122 Electron/9.3.3 Safari/537.36" version="13.10.0" etag="tfVLq7qv78dAYLItSpS3" type="embed">
    <diagram id="FMVM0CwwDAh94RMpS9ze" name="gridTraveler">
        <mxGraphModel dx="848" dy="479" grid="1" gridSize="10" guides="1" tooltips="1" connect="1" arrows="1" fold="1" page="1" pageScale="1" pageWidth="827" pageHeight="1169" math="0" shadow="0">
            <root>
                <mxCell id="0"/>
                <mxCell id="1" parent="0"/>
                <mxCell id="2" value="" style="whiteSpace=wrap;html=1;aspect=fixed;fontStyle=0;align=right;" vertex="1" parent="1">
                    <mxGeometry x="330" y="140" width="190" height="190" as="geometry"/>
                </mxCell>
                <mxCell id="7" value="" style="line;strokeWidth=4;html=1;perimeter=backbonePerimeter;points=[];outlineConnect=0;" vertex="1" parent="1">
                    <mxGeometry x="330" y="260" width="190" height="10" as="geometry"/>
                </mxCell>
                <mxCell id="8" value="" style="line;strokeWidth=4;html=1;perimeter=backbonePerimeter;points=[];outlineConnect=0;direction=south;" vertex="1" parent="1">
                    <mxGeometry x="450" y="140" width="10" height="190" as="geometry"/>
                </mxCell>
                <mxCell id="11" value="" style="line;strokeWidth=4;html=1;perimeter=backbonePerimeter;points=[];outlineConnect=0;direction=south;" vertex="1" parent="1">
                    <mxGeometry x="380" y="140" width="10" height="190" as="geometry"/>
                </mxCell>
                <mxCell id="12" value="" style="line;strokeWidth=4;html=1;perimeter=backbonePerimeter;points=[];outlineConnect=0;" vertex="1" parent="1">
                    <mxGeometry x="330" y="190" width="190" height="10" as="geometry"/>
                </mxCell>
                <mxCell id="13" value="START" style="text;html=1;resizable=0;autosize=1;align=center;verticalAlign=middle;points=[];fillColor=none;strokeColor=none;rounded=0;" vertex="1" parent="1">
                    <mxGeometry x="330" y="160" width="50" height="20" as="geometry"/>
                </mxCell>
                <mxCell id="16" value="END" style="text;html=1;align=center;verticalAlign=middle;resizable=0;points=[];autosize=1;" vertex="1" parent="1">
                    <mxGeometry x="470" y="290" width="40" height="20" as="geometry"/>
                </mxCell>
                <mxCell id="17" value="gridTraveler(3,3)" style="text;html=1;align=center;verticalAlign=middle;resizable=0;points=[];autosize=1;" vertex="1" parent="1">
                    <mxGeometry x="375" y="90" width="100" height="20" as="geometry"/>
                </mxCell>
                <mxCell id="18" value="" style="shape=singleArrow;direction=south;whiteSpace=wrap;html=1;align=right;" vertex="1" parent="1">
                    <mxGeometry x="350" y="180" width="10" height="30" as="geometry"/>
                </mxCell>
                <mxCell id="19" value="Here" style="text;html=1;align=center;verticalAlign=middle;resizable=0;points=[];autosize=1;" vertex="1" parent="1">
                    <mxGeometry x="400" y="225" width="40" height="20" as="geometry"/>
                </mxCell>
                <mxCell id="20" value="BY RULES :&lt;br&gt;1.Down&lt;br&gt;2. Right" style="text;html=1;align=center;verticalAlign=middle;resizable=0;points=[];autosize=1;" vertex="1" parent="1">
                    <mxGeometry x="210" y="190" width="80" height="50" as="geometry"/>
                </mxCell>
                <mxCell id="24" value="" style="endArrow=none;html=1;fontColor=#E4F0E2;" edge="1" parent="1">
                    <mxGeometry width="50" height="50" relative="1" as="geometry">
                        <mxPoint x="320" y="190" as="sourcePoint"/>
                        <mxPoint x="540" y="190" as="targetPoint"/>
                        <Array as="points"/>
                    </mxGeometry>
                </mxCell>
                <mxCell id="25" value="gridTraveler(2,3)" style="text;html=1;align=center;verticalAlign=middle;resizable=0;points=[];autosize=1;fontColor=#E4F0E2;" vertex="1" parent="1">
                    <mxGeometry x="550" y="220" width="100" height="20" as="geometry"/>
                </mxCell>
                <mxCell id="26" value="" style="shape=singleArrow;whiteSpace=wrap;html=1;fontColor=#E4F0E2;align=right;" vertex="1" parent="1">
                    <mxGeometry x="350" y="230" width="30" height="10" as="geometry"/>
                </mxCell>
                <mxCell id="28" value="" style="line;strokeWidth=4;html=1;perimeter=backbonePerimeter;points=[];outlineConnect=0;fontColor=#E4F0E2;align=right;" vertex="1" parent="1">
                    <mxGeometry x="284" y="260" width="300" height="10" as="geometry"/>
                </mxCell>
                <mxCell id="29" value="" style="line;strokeWidth=4;html=1;perimeter=backbonePerimeter;points=[];outlineConnect=0;fontColor=#E4F0E2;align=right;direction=south;" vertex="1" parent="1">
                    <mxGeometry x="380" y="115" width="10" height="265" as="geometry"/>
                </mxCell>
                <mxCell id="30" value="gridTraveler(2,2)" style="text;html=1;align=center;verticalAlign=middle;resizable=0;points=[];autosize=1;fontColor=#E4F0E2;" vertex="1" parent="1">
                    <mxGeometry x="400" y="340" width="100" height="20" as="geometry"/>
                </mxCell>
                <mxCell id="31" value="" style="shape=singleArrow;direction=south;whiteSpace=wrap;html=1;fontColor=#E4F0E2;align=right;" vertex="1" parent="1">
                    <mxGeometry x="415" y="250" width="10" height="30" as="geometry"/>
                </mxCell>
                <mxCell id="32" value="Here" style="text;html=1;align=center;verticalAlign=middle;resizable=0;points=[];autosize=1;fontColor=#E4F0E2;" vertex="1" parent="1">
                    <mxGeometry x="335" y="210" width="40" height="20" as="geometry"/>
                </mxCell>
                <mxCell id="33" value="Here" style="text;html=1;align=center;verticalAlign=middle;resizable=0;points=[];autosize=1;fontColor=#E4F0E2;" vertex="1" parent="1">
                    <mxGeometry x="400" y="290" width="40" height="20" as="geometry"/>
                </mxCell>
                <mxCell id="34" value="gridTraveler(1,2)" style="text;html=1;align=center;verticalAlign=middle;resizable=0;points=[];autosize=1;fontColor=#E4F0E2;" vertex="1" parent="1">
                    <mxGeometry x="550" y="270" width="100" height="20" as="geometry"/>
                </mxCell>
                <mxCell id="35" value="gridTraveler(1,1)" style="text;html=1;align=center;verticalAlign=middle;resizable=0;points=[];autosize=1;fontColor=#E4F0E2;" vertex="1" parent="1">
                    <mxGeometry x="550" y="310" width="100" height="20" as="geometry"/>
                </mxCell>
                <mxCell id="37" value="" style="shape=singleArrow;whiteSpace=wrap;html=1;fontColor=#E4F0E2;align=right;" vertex="1" parent="1">
                    <mxGeometry x="437.5" y="295" width="35" height="10" as="geometry"/>
                </mxCell>
                <mxCell id="38" value="Here" style="text;html=1;align=center;verticalAlign=middle;resizable=0;points=[];autosize=1;fontColor=#E4F0E2;" vertex="1" parent="1">
                    <mxGeometry x="470" y="305" width="40" height="20" as="geometry"/>
                </mxCell>
                <mxCell id="39" value="Our mission is to travel through the grid and minimise the game area." style="text;html=1;align=center;verticalAlign=middle;resizable=0;points=[];autosize=1;fontColor=#E4F0E2;" vertex="1" parent="1">
                    <mxGeometry x="235" y="390" width="380" height="20" as="geometry"/>
                </mxCell>
                <mxCell id="40" value="" style="ellipse;shape=doubleEllipse;whiteSpace=wrap;html=1;fontColor=#E4F0E2;align=right;" vertex="1" parent="1">
                    <mxGeometry x="345" y="460" width="70" height="60" as="geometry"/>
                </mxCell>
                <mxCell id="42" value="" style="endArrow=none;html=1;fontColor=#E4F0E2;" edge="1" parent="1" target="40">
                    <mxGeometry width="50" height="50" relative="1" as="geometry">
                        <mxPoint x="225" y="570" as="sourcePoint"/>
                        <mxPoint x="395" y="650" as="targetPoint"/>
                        <Array as="points"/>
                    </mxGeometry>
                </mxCell>
                <mxCell id="43" value="" style="ellipse;whiteSpace=wrap;html=1;fontColor=#E4F0E2;align=right;" vertex="1" parent="1">
                    <mxGeometry x="185" y="560" width="50" height="50" as="geometry"/>
                </mxCell>
                <mxCell id="44" value="" style="endArrow=none;html=1;fontColor=#E4F0E2;entryX=0.025;entryY=0.812;entryDx=0;entryDy=0;entryPerimeter=0;" edge="1" parent="1" target="43">
                    <mxGeometry width="50" height="50" relative="1" as="geometry">
                        <mxPoint x="85" y="650" as="sourcePoint"/>
                        <mxPoint x="395" y="650" as="targetPoint"/>
                    </mxGeometry>
                </mxCell>
                <mxCell id="45" value="" style="ellipse;whiteSpace=wrap;html=1;fontColor=#E4F0E2;align=right;" vertex="1" parent="1">
                    <mxGeometry x="35" y="630" width="50" height="50" as="geometry"/>
                </mxCell>
                <mxCell id="46" value="" style="endArrow=none;html=1;fontColor=#E4F0E2;entryX=1;entryY=1;entryDx=0;entryDy=0;" edge="1" parent="1" target="43">
                    <mxGeometry width="50" height="50" relative="1" as="geometry">
                        <mxPoint x="275" y="640" as="sourcePoint"/>
                        <mxPoint x="395" y="650" as="targetPoint"/>
                    </mxGeometry>
                </mxCell>
                <mxCell id="47" value="" style="ellipse;whiteSpace=wrap;html=1;fontColor=#E4F0E2;align=right;" vertex="1" parent="1">
                    <mxGeometry x="265" y="630" width="45" height="50" as="geometry"/>
                </mxCell>
                <mxCell id="48" value="" style="endArrow=none;html=1;fontColor=#E4F0E2;exitX=0;exitY=1;exitDx=0;exitDy=0;" edge="1" parent="1" source="47">
                    <mxGeometry width="50" height="50" relative="1" as="geometry">
                        <mxPoint x="345" y="700" as="sourcePoint"/>
                        <mxPoint x="205" y="720" as="targetPoint"/>
                    </mxGeometry>
                </mxCell>
                <mxCell id="49" value="" style="endArrow=none;html=1;fontColor=#E4F0E2;exitX=1;exitY=1;exitDx=0;exitDy=0;" edge="1" parent="1" source="47">
                    <mxGeometry width="50" height="50" relative="1" as="geometry">
                        <mxPoint x="345" y="700" as="sourcePoint"/>
                        <mxPoint x="375" y="720" as="targetPoint"/>
                    </mxGeometry>
                </mxCell>
                <mxCell id="50" value="" style="ellipse;whiteSpace=wrap;html=1;fontColor=#E4F0E2;align=right;" vertex="1" parent="1">
                    <mxGeometry x="175" y="710" width="45" height="40" as="geometry"/>
                </mxCell>
                <mxCell id="51" value="" style="ellipse;whiteSpace=wrap;html=1;fontColor=#E4F0E2;align=right;" vertex="1" parent="1">
                    <mxGeometry x="355" y="710" width="40" height="40" as="geometry"/>
                </mxCell>
                <mxCell id="53" style="edgeStyle=none;rounded=0;orthogonalLoop=1;jettySize=auto;html=1;exitX=0.5;exitY=1;exitDx=0;exitDy=0;fontColor=#E4F0E2;" edge="1" parent="1" source="51" target="51">
                    <mxGeometry relative="1" as="geometry"/>
                </mxCell>
                <mxCell id="54" value="DOWN" style="text;html=1;align=center;verticalAlign=middle;resizable=0;points=[];autosize=1;fontColor=#E4F0E2;" vertex="1" parent="1">
                    <mxGeometry x="230" y="490" width="50" height="20" as="geometry"/>
                </mxCell>
                <mxCell id="55" value="DOWN" style="text;html=1;align=center;verticalAlign=middle;resizable=0;points=[];autosize=1;fontColor=#E4F0E2;" vertex="1" parent="1">
                    <mxGeometry x="70" y="590" width="50" height="20" as="geometry"/>
                </mxCell>
                <mxCell id="56" value="2,3" style="text;html=1;align=center;verticalAlign=middle;resizable=0;points=[];autosize=1;fontColor=#E4F0E2;" vertex="1" parent="1">
                    <mxGeometry x="364" y="480" width="30" height="20" as="geometry"/>
                </mxCell>
                <mxCell id="57" value="1,3" style="text;html=1;align=center;verticalAlign=middle;resizable=0;points=[];autosize=1;fontColor=#E4F0E2;" vertex="1" parent="1">
                    <mxGeometry x="195" y="575" width="30" height="20" as="geometry"/>
                </mxCell>
                <mxCell id="58" value="0,3" style="text;html=1;align=center;verticalAlign=middle;resizable=0;points=[];autosize=1;fontColor=#E4F0E2;" vertex="1" parent="1">
                    <mxGeometry x="45" y="645" width="30" height="20" as="geometry"/>
                </mxCell>
                <mxCell id="60" value="RIGHT" style="text;html=1;align=center;verticalAlign=middle;resizable=0;points=[];autosize=1;fontColor=#E4F0E2;" vertex="1" parent="1">
                    <mxGeometry x="240" y="590" width="50" height="20" as="geometry"/>
                </mxCell>
                <mxCell id="61" value="RIGHT" style="text;html=1;align=center;verticalAlign=middle;resizable=0;points=[];autosize=1;fontColor=#E4F0E2;" vertex="1" parent="1">
                    <mxGeometry x="320" y="670" width="50" height="20" as="geometry"/>
                </mxCell>
                <mxCell id="62" value="DOWN" style="text;html=1;align=center;verticalAlign=middle;resizable=0;points=[];autosize=1;fontColor=#E4F0E2;" vertex="1" parent="1">
                    <mxGeometry x="180" y="670" width="50" height="20" as="geometry"/>
                </mxCell>
                <mxCell id="63" value="1,2" style="text;html=1;align=center;verticalAlign=middle;resizable=0;points=[];autosize=1;fontColor=#E4F0E2;" vertex="1" parent="1">
                    <mxGeometry x="272.5" y="645" width="30" height="20" as="geometry"/>
                </mxCell>
                <mxCell id="64" value="0,2" style="text;html=1;align=center;verticalAlign=middle;resizable=0;points=[];autosize=1;fontColor=#E4F0E2;" vertex="1" parent="1">
                    <mxGeometry x="185" y="720" width="30" height="20" as="geometry"/>
                </mxCell>
                <mxCell id="65" value="1,1" style="text;html=1;align=center;verticalAlign=middle;resizable=0;points=[];autosize=1;fontColor=#E4F0E2;" vertex="1" parent="1">
                    <mxGeometry x="359" y="720" width="30" height="20" as="geometry"/>
                </mxCell>
                <mxCell id="67" value="" style="endArrow=none;html=1;fontColor=#E4F0E2;entryX=1.035;entryY=0.665;entryDx=0;entryDy=0;entryPerimeter=0;" edge="1" parent="1" target="40">
                    <mxGeometry width="50" height="50" relative="1" as="geometry">
                        <mxPoint x="595" y="580" as="sourcePoint"/>
                        <mxPoint x="395" y="650" as="targetPoint"/>
                    </mxGeometry>
                </mxCell>
                <mxCell id="68" value="RIGHT" style="text;html=1;align=center;verticalAlign=middle;resizable=0;points=[];autosize=1;fontColor=#E4F0E2;" vertex="1" parent="1">
                    <mxGeometry x="480" y="510" width="50" height="20" as="geometry"/>
                </mxCell>
                <mxCell id="69" value="" style="ellipse;whiteSpace=wrap;html=1;fontColor=#E4F0E2;align=right;" vertex="1" parent="1">
                    <mxGeometry x="575" y="575" width="50" height="40" as="geometry"/>
                </mxCell>
                <mxCell id="70" value="" style="endArrow=none;html=1;fontColor=#E4F0E2;entryX=-0.026;entryY=0.762;entryDx=0;entryDy=0;entryPerimeter=0;" edge="1" parent="1" target="69">
                    <mxGeometry width="50" height="50" relative="1" as="geometry">
                        <mxPoint x="495" y="640" as="sourcePoint"/>
                        <mxPoint x="395" y="650" as="targetPoint"/>
                    </mxGeometry>
                </mxCell>
                <mxCell id="71" value="" style="ellipse;whiteSpace=wrap;html=1;fontColor=#E4F0E2;align=right;" vertex="1" parent="1">
                    <mxGeometry x="445" y="630" width="60" height="50" as="geometry"/>
                </mxCell>
                <mxCell id="72" value="" style="endArrow=none;html=1;fontColor=#E4F0E2;entryX=0.27;entryY=1.009;entryDx=0;entryDy=0;entryPerimeter=0;" edge="1" parent="1" target="71">
                    <mxGeometry width="50" height="50" relative="1" as="geometry">
                        <mxPoint x="405" y="770" as="sourcePoint"/>
                        <mxPoint x="395" y="650" as="targetPoint"/>
                    </mxGeometry>
                </mxCell>
                <mxCell id="73" value="" style="endArrow=none;html=1;fontColor=#E4F0E2;entryX=1;entryY=1;entryDx=0;entryDy=0;" edge="1" parent="1" target="71">
                    <mxGeometry width="50" height="50" relative="1" as="geometry">
                        <mxPoint x="535" y="770" as="sourcePoint"/>
                        <mxPoint x="395" y="650" as="targetPoint"/>
                    </mxGeometry>
                </mxCell>
                <mxCell id="74" value="" style="endArrow=none;html=1;fontColor=#E4F0E2;entryX=1;entryY=1;entryDx=0;entryDy=0;" edge="1" parent="1" target="69">
                    <mxGeometry width="50" height="50" relative="1" as="geometry">
                        <mxPoint x="675" y="640" as="sourcePoint"/>
                        <mxPoint x="395" y="650" as="targetPoint"/>
                    </mxGeometry>
                </mxCell>
                <mxCell id="75" value="" style="ellipse;whiteSpace=wrap;html=1;fontColor=#E4F0E2;align=right;" vertex="1" parent="1">
                    <mxGeometry x="645" y="630" width="70" height="50" as="geometry"/>
                </mxCell>
                <mxCell id="76" value="" style="endArrow=none;html=1;fontColor=#E4F0E2;" edge="1" parent="1" target="75">
                    <mxGeometry width="50" height="50" relative="1" as="geometry">
                        <mxPoint x="595" y="770" as="sourcePoint"/>
                        <mxPoint x="395" y="650" as="targetPoint"/>
                    </mxGeometry>
                </mxCell>
                <mxCell id="77" value="" style="endArrow=none;html=1;fontColor=#E4F0E2;entryX=1;entryY=1;entryDx=0;entryDy=0;" edge="1" parent="1" target="75">
                    <mxGeometry width="50" height="50" relative="1" as="geometry">
                        <mxPoint x="780" y="760" as="sourcePoint"/>
                        <mxPoint x="395" y="650" as="targetPoint"/>
                    </mxGeometry>
                </mxCell>
                <mxCell id="78" value="RIGHT" style="text;html=1;align=center;verticalAlign=middle;resizable=0;points=[];autosize=1;fontColor=#E4F0E2;" vertex="1" parent="1">
                    <mxGeometry x="635" y="590" width="50" height="20" as="geometry"/>
                </mxCell>
                <mxCell id="79" value="RIGHT" style="text;html=1;align=center;verticalAlign=middle;resizable=0;points=[];autosize=1;fontColor=#E4F0E2;" vertex="1" parent="1">
                    <mxGeometry x="735" y="690" width="50" height="20" as="geometry"/>
                </mxCell>
                <mxCell id="80" value="DOWN" style="text;html=1;align=center;verticalAlign=middle;resizable=0;points=[];autosize=1;fontColor=#E4F0E2;" vertex="1" parent="1">
                    <mxGeometry x="575" y="700" width="50" height="20" as="geometry"/>
                </mxCell>
                <mxCell id="81" value="DOWN" style="text;html=1;align=center;verticalAlign=middle;resizable=0;points=[];autosize=1;fontColor=#E4F0E2;" vertex="1" parent="1">
                    <mxGeometry x="395" y="690" width="50" height="20" as="geometry"/>
                </mxCell>
                <mxCell id="82" value="RIGHT" style="text;html=1;align=center;verticalAlign=middle;resizable=0;points=[];autosize=1;fontColor=#E4F0E2;" vertex="1" parent="1">
                    <mxGeometry x="510" y="690" width="50" height="20" as="geometry"/>
                </mxCell>
                <mxCell id="83" value="" style="ellipse;whiteSpace=wrap;html=1;fontColor=#E4F0E2;align=right;" vertex="1" parent="1">
                    <mxGeometry x="365" y="760" width="60" height="40" as="geometry"/>
                </mxCell>
                <mxCell id="84" value="" style="ellipse;whiteSpace=wrap;html=1;fontColor=#E4F0E2;align=right;" vertex="1" parent="1">
                    <mxGeometry x="500" y="760" width="64" height="50" as="geometry"/>
                </mxCell>
                <mxCell id="85" value="" style="ellipse;whiteSpace=wrap;html=1;fontColor=#E4F0E2;align=right;" vertex="1" parent="1">
                    <mxGeometry x="760" y="760" width="60" height="50" as="geometry"/>
                </mxCell>
                <mxCell id="86" value="" style="ellipse;whiteSpace=wrap;html=1;fontColor=#E4F0E2;align=right;" vertex="1" parent="1">
                    <mxGeometry x="584" y="760" width="75" height="50" as="geometry"/>
                </mxCell>
                <mxCell id="87" value="2,2" style="text;html=1;align=center;verticalAlign=middle;resizable=0;points=[];autosize=1;fontColor=#E4F0E2;" vertex="1" parent="1">
                    <mxGeometry x="585" y="585" width="30" height="20" as="geometry"/>
                </mxCell>
                <mxCell id="88" value="DOWN" style="text;html=1;align=center;verticalAlign=middle;resizable=0;points=[];autosize=1;fontColor=#E4F0E2;" vertex="1" parent="1">
                    <mxGeometry x="495" y="580" width="50" height="20" as="geometry"/>
                </mxCell>
                <mxCell id="89" value="2,1" style="text;html=1;align=center;verticalAlign=middle;resizable=0;points=[];autosize=1;fontColor=#E4F0E2;" vertex="1" parent="1">
                    <mxGeometry x="665" y="645" width="30" height="20" as="geometry"/>
                </mxCell>
                <mxCell id="90" value="0,0" style="text;html=1;align=center;verticalAlign=middle;resizable=0;points=[];autosize=1;fontColor=#E4F0E2;" vertex="1" parent="1">
                    <mxGeometry x="775" y="775" width="30" height="20" as="geometry"/>
                </mxCell>
                <mxCell id="91" value="1,1" style="text;html=1;align=center;verticalAlign=middle;resizable=0;points=[];autosize=1;fontColor=#E4F0E2;" vertex="1" parent="1">
                    <mxGeometry x="605" y="775" width="30" height="20" as="geometry"/>
                </mxCell>
                <mxCell id="92" value="1,1" style="text;html=1;align=center;verticalAlign=middle;resizable=0;points=[];autosize=1;fontColor=#E4F0E2;" vertex="1" parent="1">
                    <mxGeometry x="515" y="775" width="30" height="20" as="geometry"/>
                </mxCell>
                <mxCell id="93" value="0,2" style="text;html=1;align=center;verticalAlign=middle;resizable=0;points=[];autosize=1;fontColor=#E4F0E2;" vertex="1" parent="1">
                    <mxGeometry x="380" y="770" width="30" height="20" as="geometry"/>
                </mxCell>
                <mxCell id="94" value="1,2" style="text;html=1;align=center;verticalAlign=middle;resizable=0;points=[];autosize=1;fontColor=#E4F0E2;" vertex="1" parent="1">
                    <mxGeometry x="460" y="645" width="30" height="20" as="geometry"/>
                </mxCell>
                <mxCell id="95" value="3" style="text;html=1;align=center;verticalAlign=middle;resizable=0;points=[];autosize=1;fontColor=#E4F0E2;" vertex="1" parent="1">
                    <mxGeometry x="370" y="420" width="20" height="20" as="geometry"/>
                </mxCell>
            </root>
        </mxGraphModel>
    </diagram>
</mxfile>